<svg width="638" height="268" viewBox="0 0 638 268" version="1.1" xmlns="http://www.w3.org/2000/svg" xmlns:xlink="http://www.w3.org/1999/xlink" xmlns:figma="http://www.figma.com/figma/ns">
<title>Component</title>
<desc>Created using Figma</desc>
<g id="Canvas" transform="translate(143 174)" figma:type="canvas">
<g id="Component" figma:type="symbol">
<g id="Line" figma:type="line">
<use xlink:href="#path0_stroke" transform="matrix(-1 1.22465e-16 -1.22465e-16 -1 138 47.5)"/>
</g>
<g id="1" figma:type="text">
<use xlink:href="#path1_fill" transform="matrix(1 1.9916e-16 -1.9916e-16 1 -67 54)" fill="#333333"/>
</g>
<g id="Line" figma:type="line">
<use xlink:href="#path2_stroke" transform="matrix(2.83277e-16 1 -1 2.83277e-16 -97 -136.5)"/>
</g>
<g id="450" figma:type="text">
<use xlink:href="#path3_fill" transform="translate(-119 -111.5)" fill="#333333"/>
</g>
<g id="100" figma:type="text">
<use xlink:href="#path4_fill" transform="translate(-119 6.5)" fill="#333333"/>
</g>
<g id="200" figma:type="text">
<use xlink:href="#path5_fill" transform="translate(-119 -32.5)" fill="#333333"/>
</g>
<g id="350" figma:type="text">
<use xlink:href="#path6_fill" transform="translate(-119 -71.5)" fill="#333333"/>
</g>
<g id="50" figma:type="text">
<use xlink:href="#path7_fill" transform="translate(-114 25.5)" fill="#333333"/>
</g>
<g id="150" figma:type="text">
<use xlink:href="#path8_fill" transform="translate(-119 -12.5)" fill="#333333"/>
</g>
<g id="300" figma:type="text">
<use xlink:href="#path9_fill" transform="translate(-119 -51.5)" fill="#333333"/>
</g>
<g id="400" figma:type="text">
<use xlink:href="#path10_fill" transform="translate(-119 -91.75)" fill="#333333"/>
</g>
<g id="Line 2" figma:type="line">
<use xlink:href="#path11_stroke" transform="translate(-101 -127.5)"/>
</g>
<g id="Line 2" figma:type="line">
<use xlink:href="#path11_stroke" transform="translate(-101 -106.75)"/>
</g>
<g id="Line 2" figma:type="line">
<use xlink:href="#path11_stroke" transform="translate(-101 -87.5)"/>
</g>
<g id="Line 2" figma:type="line">
<use xlink:href="#path11_stroke" transform="translate(-101 -67.5)"/>
</g>
<g id="Line 2" figma:type="line">
<use xlink:href="#path11_stroke" transform="translate(-101 -47.5)"/>
</g>
<g id="Line 2" figma:type="line">
<use xlink:href="#path11_stroke" transform="translate(-101 -28.5)"/>
</g>
<g id="Line 2" figma:type="line">
<use xlink:href="#path11_stroke" transform="translate(-101 -8.5)"/>
</g>
<g id="Line 2" figma:type="line">
<use xlink:href="#path11_stroke" transform="translate(-101 10.5)"/>
</g>
<g id="Line 2" figma:type="line">
<use xlink:href="#path11_stroke" transform="translate(-101 29.5)"/>
</g>
<g id="Line 2" figma:type="line">
<use xlink:href="#path11_stroke" transform="matrix(6.12323e-17 1 -1 6.12323e-17 -64.5 47.5)"/>
</g>
<g id="Line 2" figma:type="line">
<use xlink:href="#path11_stroke" transform="matrix(6.12323e-17 1 -1 6.12323e-17 -26.5 47.5)"/>
</g>
<g id="Line 2" figma:type="line">
<use xlink:href="#path11_stroke" transform="matrix(6.12323e-17 1 -1 6.12323e-17 12.5 47.5)"/>
</g>
<g id="Line 2" figma:type="line">
<use xlink:href="#path11_stroke" transform="matrix(6.12323e-17 1 -1 6.12323e-17 50.5 47.5)"/>
</g>
<g id="Line 2" figma:type="line">
<use xlink:href="#path11_stroke" transform="matrix(6.12323e-17 1 -1 6.12323e-17 88.5 47.5)"/>
</g>
<g id="Line 2" figma:type="line">
<use xlink:href="#path11_stroke" transform="matrix(6.12323e-17 1 -1 6.12323e-17 126.5 47.5)"/>
</g>
<g id="Ellipse" figma:type="ellipse">
<use xlink:href="#path12_fill" transform="translate(-84 7.5)"/>
</g>
<g id="Ellipse" figma:type="ellipse">
<use xlink:href="#path12_fill" transform="translate(-65 -10)"/>
</g>
<g id="Ellipse" figma:type="ellipse">
<use xlink:href="#path12_fill" transform="translate(-51 7)"/>
</g>
<g id="Ellipse" figma:type="ellipse">
<use xlink:href="#path12_fill" transform="translate(-43 -18)"/>
</g>
<g id="Ellipse" figma:type="ellipse">
<use xlink:href="#path12_fill" transform="translate(-27 -23)"/>
</g>
<g id="Ellipse" figma:type="ellipse">
<use xlink:href="#path12_fill" transform="translate(12.5 -31.5)"/>
</g>
<g id="Ellipse" figma:type="ellipse">
<use xlink:href="#path12_fill" transform="translate(31 -31.5)"/>
</g>
<g id="Ellipse" figma:type="ellipse">
<use xlink:href="#path12_fill" transform="translate(49 -55)"/>
</g>
<g id="Ellipse" figma:type="ellipse">
<use xlink:href="#path12_fill" transform="translate(69.5 -70.5)"/>
</g>
<g id="Ellipse" figma:type="ellipse">
<use xlink:href="#path12_fill" transform="translate(88.5 -50.5)"/>
</g>
<g id="Ellipse" figma:type="ellipse">
<use xlink:href="#path12_fill" transform="translate(107.5 -70.5)"/>
</g>
<g id="Ellipse" figma:type="ellipse">
<use xlink:href="#path12_fill" transform="translate(86 -67)"/>
</g>
<g id="Number of bedrooms" figma:type="text">
<use xlink:href="#path13_fill" transform="translate(-20 60)" fill="#333333"/>
</g>
<g id="x" figma:type="text">
<use xlink:href="#path14_fill" transform="translate(144 41)"/>
</g>
<g id="Price" figma:type="text">
<use xlink:href="#path15_fill" transform="matrix(-1.83697e-16 -1 1 -1.83697e-16 -143 -43.5)" fill="#333333"/>
</g>
<g id="500" figma:type="text">
<use xlink:href="#path16_fill" transform="translate(-119 -131.5)" fill="#333333"/>
</g>
<g id="2" figma:type="text">
<use xlink:href="#path17_fill" transform="matrix(1 1.9916e-16 -1.9916e-16 1 -29 54)" fill="#333333"/>
</g>
<g id="3" figma:type="text">
<use xlink:href="#path18_fill" transform="matrix(1 1.9916e-16 -1.9916e-16 1 11 54)" fill="#333333"/>
</g>
<g id="4" figma:type="text">
<use xlink:href="#path19_fill" transform="matrix(1 1.9916e-16 -1.9916e-16 1 48 54)" fill="#333333"/>
</g>
<g id="5" figma:type="text">
<use xlink:href="#path20_fill" transform="matrix(1 1.9916e-16 -1.9916e-16 1 86 54)" fill="#333333"/>
</g>
<g id="6" figma:type="text">
<use xlink:href="#path21_fill" transform="matrix(1 1.9916e-16 -1.9916e-16 1 125 54)" fill="#333333"/>
</g>
<g id="Ellipse" figma:type="ellipse">
<use xlink:href="#path12_fill" transform="translate(-72 -3)"/>
</g>
<g id="Ellipse" figma:type="ellipse">
<use xlink:href="#path12_fill" transform="translate(-53.5 -3)"/>
</g>
<g id="Ellipse" figma:type="ellipse">
<use xlink:href="#path12_fill" transform="translate(-11 -45.25)"/>
</g>
<g id="Ellipse" figma:type="ellipse">
<use xlink:href="#path12_fill" transform="translate(8 -25)"/>
</g>
<g id="Ellipse" figma:type="ellipse">
<use xlink:href="#path12_fill" transform="translate(27 -9)"/>
</g>
<g id="Ellipse" figma:type="ellipse">
<use xlink:href="#path12_fill" transform="translate(46 -25)"/>
</g>
<g id="Ellipse" figma:type="ellipse">
<use xlink:href="#path12_fill" transform="translate(63 -65)"/>
</g>
<g id="Ellipse" figma:type="ellipse">
<use xlink:href="#path12_fill" transform="translate(24 -48)"/>
</g>
<g id="Ellipse" figma:type="ellipse">
<use xlink:href="#path12_fill" transform="translate(43 -40)"/>
</g>
<g id="Ellipse" figma:type="ellipse">
<use xlink:href="#path12_fill" transform="translate(67 -39)"/>
</g>
<g id="Ellipse" figma:type="ellipse">
<use xlink:href="#path12_fill" transform="translate(81 -40)"/>
</g>
<g id="Ellipse" figma:type="ellipse">
<use xlink:href="#path12_fill" transform="translate(98 -80)"/>
</g>
<g id="Ellipse" figma:type="ellipse">
<use xlink:href="#path12_fill" transform="translate(-33 -39.25)"/>
</g>
<g id="Ellipse" figma:type="ellipse">
<use xlink:href="#path12_fill" transform="translate(-15 -26)"/>
</g>
<g id="Ellipse" figma:type="ellipse">
<use xlink:href="#path12_fill" transform="translate(0 -12)"/>
</g>
<g id="Ellipse" figma:type="ellipse">
<use xlink:href="#path12_fill" transform="translate(23 -26)"/>
</g>
<g id="Ellipse" figma:type="ellipse">
<use xlink:href="#path12_fill" transform="translate(40 -66)"/>
</g>
<g id="Line 3" figma:type="line">
<use xlink:href="#path22_stroke" transform="matrix(0.812623 -0.58279 0.58279 0.812623 -97 48)" fill="#EB5757"/>
</g>
<g id="y = 60x" figma:type="text">
<use xlink:href="#path23_fill" transform="translate(-4 -174)" fill="#EB5757"/>
</g>
<g id="y" figma:type="text">
<use xlink:href="#path24_fill" transform="translate(-99 -152)"/>
</g>
<g id="Line 4" figma:type="line">
<use xlink:href="#path25_stroke" transform="matrix(-0.507636 0.861571 -0.861571 -0.507636 100.455 -94.8639)" fill="#EB5757"/>
</g>
<g id="Line 4" figma:type="line">
<use xlink:href="#path26_stroke" transform="matrix(-0.959999 0.280005 -0.280005 -0.959999 99.857 -95)" fill="#EB5757"/>
</g>
<g id="Line" figma:type="line">
<use xlink:href="#path0_stroke" transform="matrix(-1 1.22465e-16 -1.22465e-16 -1 484 47.5)"/>
</g>
<g id="1" figma:type="text">
<use xlink:href="#path1_fill" transform="matrix(1 1.9916e-16 -1.9916e-16 1 279 54)" fill="#333333"/>
</g>
<g id="Line" figma:type="line">
<use xlink:href="#path2_stroke" transform="matrix(2.83277e-16 1 -1 2.83277e-16 249 -136.5)"/>
</g>
<g id="450" figma:type="text">
<use xlink:href="#path3_fill" transform="translate(227 -111.5)" fill="#333333"/>
</g>
<g id="100" figma:type="text">
<use xlink:href="#path4_fill" transform="translate(227 6.5)" fill="#333333"/>
</g>
<g id="200" figma:type="text">
<use xlink:href="#path5_fill" transform="translate(227 -32.5)" fill="#333333"/>
</g>
<g id="350" figma:type="text">
<use xlink:href="#path6_fill" transform="translate(227 -71.5)" fill="#333333"/>
</g>
<g id="50" figma:type="text">
<use xlink:href="#path7_fill" transform="translate(232 25.5)" fill="#333333"/>
</g>
<g id="150" figma:type="text">
<use xlink:href="#path8_fill" transform="translate(227 -12.5)" fill="#333333"/>
</g>
<g id="300" figma:type="text">
<use xlink:href="#path9_fill" transform="translate(227 -51.5)" fill="#333333"/>
</g>
<g id="400" figma:type="text">
<use xlink:href="#path10_fill" transform="translate(227 -91.75)" fill="#333333"/>
</g>
<g id="Line 2" figma:type="line">
<use xlink:href="#path11_stroke" transform="translate(245 -127.5)"/>
</g>
<g id="Line 2" figma:type="line">
<use xlink:href="#path11_stroke" transform="translate(245 -106.75)"/>
</g>
<g id="Line 2" figma:type="line">
<use xlink:href="#path11_stroke" transform="translate(245 -87.5)"/>
</g>
<g id="Line 2" figma:type="line">
<use xlink:href="#path11_stroke" transform="translate(245 -67.5)"/>
</g>
<g id="Line 2" figma:type="line">
<use xlink:href="#path11_stroke" transform="translate(245 -47.5)"/>
</g>
<g id="Line 2" figma:type="line">
<use xlink:href="#path11_stroke" transform="translate(245 -28.5)"/>
</g>
<g id="Line 2" figma:type="line">
<use xlink:href="#path11_stroke" transform="translate(245 -8.5)"/>
</g>
<g id="Line 2" figma:type="line">
<use xlink:href="#path11_stroke" transform="translate(245 10.5)"/>
</g>
<g id="Line 2" figma:type="line">
<use xlink:href="#path11_stroke" transform="translate(245 29.5)"/>
</g>
<g id="Line 2" figma:type="line">
<use xlink:href="#path11_stroke" transform="matrix(6.12323e-17 1 -1 6.12323e-17 281.5 47.5)"/>
</g>
<g id="Line 2" figma:type="line">
<use xlink:href="#path11_stroke" transform="matrix(6.12323e-17 1 -1 6.12323e-17 319.5 47.5)"/>
</g>
<g id="Line 2" figma:type="line">
<use xlink:href="#path11_stroke" transform="matrix(6.12323e-17 1 -1 6.12323e-17 358.5 47.5)"/>
</g>
<g id="Line 2" figma:type="line">
<use xlink:href="#path11_stroke" transform="matrix(6.12323e-17 1 -1 6.12323e-17 396.5 47.5)"/>
</g>
<g id="Line 2" figma:type="line">
<use xlink:href="#path11_stroke" transform="matrix(6.12323e-17 1 -1 6.12323e-17 434.5 47.5)"/>
</g>
<g id="Line 2" figma:type="line">
<use xlink:href="#path11_stroke" transform="matrix(6.12323e-17 1 -1 6.12323e-17 472.5 47.5)"/>
</g>
<g id="Ellipse" figma:type="ellipse">
<use xlink:href="#path12_fill" transform="translate(262 7.5)"/>
</g>
<g id="Ellipse" figma:type="ellipse">
<use xlink:href="#path12_fill" transform="translate(281 -10)"/>
</g>
<g id="Ellipse" figma:type="ellipse">
<use xlink:href="#path12_fill" transform="translate(295 7)"/>
</g>
<g id="Ellipse" figma:type="ellipse">
<use xlink:href="#path12_fill" transform="translate(303 -18)"/>
</g>
<g id="Ellipse" figma:type="ellipse">
<use xlink:href="#path12_fill" transform="translate(319 -23)"/>
</g>
<g id="Ellipse" figma:type="ellipse">
<use xlink:href="#path12_fill" transform="translate(358.5 -31.5)"/>
</g>
<g id="Ellipse" figma:type="ellipse">
<use xlink:href="#path12_fill" transform="translate(377 -31.5)"/>
</g>
<g id="Ellipse" figma:type="ellipse">
<use xlink:href="#path12_fill" transform="translate(395 -55)"/>
</g>
<g id="Ellipse" figma:type="ellipse">
<use xlink:href="#path12_fill" transform="translate(415.5 -70.5)"/>
</g>
<g id="Ellipse" figma:type="ellipse">
<use xlink:href="#path12_fill" transform="translate(434.5 -50.5)"/>
</g>
<g id="Ellipse" figma:type="ellipse">
<use xlink:href="#path12_fill" transform="translate(453.5 -70.5)"/>
</g>
<g id="Ellipse" figma:type="ellipse">
<use xlink:href="#path12_fill" transform="translate(432 -67)"/>
</g>
<g id="Number of bedrooms" figma:type="text">
<use xlink:href="#path13_fill" transform="translate(326 60)" fill="#333333"/>
</g>
<g id="x" figma:type="text">
<use xlink:href="#path14_fill" transform="translate(490 41)"/>
</g>
<g id="Price" figma:type="text">
<use xlink:href="#path15_fill" transform="matrix(-1.83697e-16 -1 1 -1.83697e-16 203 -43.5)" fill="#333333"/>
</g>
<g id="500" figma:type="text">
<use xlink:href="#path16_fill" transform="translate(227 -131.5)" fill="#333333"/>
</g>
<g id="2" figma:type="text">
<use xlink:href="#path17_fill" transform="matrix(1 1.9916e-16 -1.9916e-16 1 317 54)" fill="#333333"/>
</g>
<g id="3" figma:type="text">
<use xlink:href="#path18_fill" transform="matrix(1 1.9916e-16 -1.9916e-16 1 357 54)" fill="#333333"/>
</g>
<g id="4" figma:type="text">
<use xlink:href="#path19_fill" transform="matrix(1 1.9916e-16 -1.9916e-16 1 394 54)" fill="#333333"/>
</g>
<g id="5" figma:type="text">
<use xlink:href="#path20_fill" transform="matrix(1 1.9916e-16 -1.9916e-16 1 432 54)" fill="#333333"/>
</g>
<g id="6" figma:type="text">
<use xlink:href="#path21_fill" transform="matrix(1 1.9916e-16 -1.9916e-16 1 471 54)" fill="#333333"/>
</g>
<g id="Ellipse" figma:type="ellipse">
<use xlink:href="#path12_fill" transform="translate(274 -3)"/>
</g>
<g id="Ellipse" figma:type="ellipse">
<use xlink:href="#path12_fill" transform="translate(292.5 -3)"/>
</g>
<g id="Ellipse" figma:type="ellipse">
<use xlink:href="#path12_fill" transform="translate(335 -45.25)"/>
</g>
<g id="Ellipse" figma:type="ellipse">
<use xlink:href="#path12_fill" transform="translate(354 -25)"/>
</g>
<g id="Ellipse" figma:type="ellipse">
<use xlink:href="#path12_fill" transform="translate(373 -9)"/>
</g>
<g id="Ellipse" figma:type="ellipse">
<use xlink:href="#path12_fill" transform="translate(392 -25)"/>
</g>
<g id="Ellipse" figma:type="ellipse">
<use xlink:href="#path12_fill" transform="translate(409 -65)"/>
</g>
<g id="Ellipse" figma:type="ellipse">
<use xlink:href="#path12_fill" transform="translate(370 -48)"/>
</g>
<g id="Ellipse" figma:type="ellipse">
<use xlink:href="#path12_fill" transform="translate(389 -40)"/>
</g>
<g id="Ellipse" figma:type="ellipse">
<use xlink:href="#path12_fill" transform="translate(413 -39)"/>
</g>
<g id="Ellipse" figma:type="ellipse">
<use xlink:href="#path12_fill" transform="translate(427 -40)"/>
</g>
<g id="Ellipse" figma:type="ellipse">
<use xlink:href="#path12_fill" transform="translate(444 -80)"/>
</g>
<g id="Ellipse" figma:type="ellipse">
<use xlink:href="#path12_fill" transform="translate(313 -39.25)"/>
</g>
<g id="Ellipse" figma:type="ellipse">
<use xlink:href="#path12_fill" transform="translate(331 -26)"/>
</g>
<g id="Ellipse" figma:type="ellipse">
<use xlink:href="#path12_fill" transform="translate(346 -12)"/>
</g>
<g id="Ellipse" figma:type="ellipse">
<use xlink:href="#path12_fill" transform="translate(369 -26)"/>
</g>
<g id="Ellipse" figma:type="ellipse">
<use xlink:href="#path12_fill" transform="translate(386 -66)"/>
</g>
<g id="Line 3" figma:type="line">
<use xlink:href="#path27_stroke" transform="matrix(0.893554 -0.448956 0.448956 0.893554 250 21)" fill="#EB5757"/>
</g>
<g id="y = 35x + 70" figma:type="text">
<use xlink:href="#path28_fill" transform="translate(336 -174)" fill="#EB5757"/>
</g>
<g id="y" figma:type="text">
<use xlink:href="#path24_fill" transform="translate(247 -152)"/>
</g>
<g id="Line 4" figma:type="line">
<use xlink:href="#path25_stroke" transform="matrix(-0.507636 0.861571 -0.861571 -0.507636 453.455 -82)" fill="#EB5757"/>
</g>
<g id="Line 4" figma:type="line">
<use xlink:href="#path29_stroke" transform="matrix(-1 1.09561e-16 -1.11022e-16 -1 454.857 -83)" fill="#EB5757"/>
</g>
</g>
</g>
<defs>
<path id="path0_stroke" d="M 0.5 -1L 0 -1L 0 0L 0.5 0L 0.5 -1ZM 234.5 0L 235 0L 235 -1L 234.5 -1L 234.5 0ZM 0.5 0L 234.5 0L 234.5 -1L 0.5 -1L 0.5 0Z"/>
<path id="path1_fill" d="M 3.55957 9L 2.65137 9L 2.65137 2.97949L 0.830078 3.64844L 0.830078 2.82812L 3.41797 1.85645L 3.55957 1.85645L 3.55957 9Z"/>
<path id="path2_stroke" d="M 0.5 -1L 0 -1L 0 0L 0.5 0L 0.5 -1ZM 183.5 0L 184 0L 184 -1L 183.5 -1L 183.5 0ZM 0.5 0L 183.5 0L 183.5 -1L 0.5 -1L 0.5 0Z"/>
<path id="path3_fill" d="M 3.52344 5.08984L 4.3125 5.08984L 4.3125 5.67969L 3.52344 5.67969L 3.52344 7L 2.79688 7L 2.79688 5.67969L 0.207031 5.67969L 0.207031 5.25391L 2.75391 1.3125L 3.52344 1.3125L 3.52344 5.08984ZM 1.02734 5.08984L 2.79688 5.08984L 2.79688 2.30078L 2.71094 2.45703L 1.02734 5.08984ZM 5.29688 4.14844L 5.58594 1.3125L 8.5 1.3125L 8.5 1.98047L 6.19922 1.98047L 6.02734 3.53125C 6.30599 3.36719 6.6224 3.28516 6.97656 3.28516C 7.49479 3.28516 7.90625 3.45703 8.21094 3.80078C 8.51562 4.14193 8.66797 4.60417 8.66797 5.1875C 8.66797 5.77344 8.50911 6.23568 8.19141 6.57422C 7.8763 6.91016 7.4349 7.07812 6.86719 7.07812C 6.36458 7.07812 5.95443 6.9388 5.63672 6.66016C 5.31901 6.38151 5.13802 5.99609 5.09375 5.50391L 5.77734 5.50391C 5.82161 5.82943 5.9375 6.07552 6.125 6.24219C 6.3125 6.40625 6.5599 6.48828 6.86719 6.48828C 7.20312 6.48828 7.46615 6.3737 7.65625 6.14453C 7.84896 5.91536 7.94531 5.59896 7.94531 5.19531C 7.94531 4.8151 7.84115 4.51042 7.63281 4.28125C 7.42708 4.04948 7.15234 3.93359 6.80859 3.93359C 6.49349 3.93359 6.24609 4.0026 6.06641 4.14062L 5.875 4.29688L 5.29688 4.14844ZM 13.0234 4.57422C 13.0234 5.42057 12.8789 6.04948 12.5898 6.46094C 12.3008 6.8724 11.849 7.07812 11.2344 7.07812C 10.6276 7.07812 10.1784 6.8776 9.88672 6.47656C 9.59505 6.07292 9.44401 5.47135 9.43359 4.67188L 9.43359 3.70703C 9.43359 2.87109 9.57812 2.25 9.86719 1.84375C 10.1562 1.4375 10.6094 1.23438 11.2266 1.23438C 11.8385 1.23438 12.2891 1.43099 12.5781 1.82422C 12.8672 2.21484 13.0156 2.81901 13.0234 3.63672L 13.0234 4.57422ZM 12.3008 3.58594C 12.3008 2.97396 12.2148 2.52865 12.043 2.25C 11.8711 1.96875 11.599 1.82812 11.2266 1.82812C 10.8568 1.82812 10.5872 1.96745 10.418 2.24609C 10.2487 2.52474 10.1615 2.95312 10.1562 3.53125L 10.1562 4.6875C 10.1562 5.30208 10.2448 5.75651 10.4219 6.05078C 10.6016 6.34245 10.8724 6.48828 11.2344 6.48828C 11.5911 6.48828 11.8555 6.35026 12.0273 6.07422C 12.2018 5.79818 12.293 5.36328 12.3008 4.76953L 12.3008 3.58594Z"/>
<path id="path4_fill" d="M 2.84766 7L 2.12109 7L 2.12109 2.18359L 0.664062 2.71875L 0.664062 2.0625L 2.73438 1.28516L 2.84766 1.28516L 2.84766 7ZM 8.53125 4.57422C 8.53125 5.42057 8.38672 6.04948 8.09766 6.46094C 7.80859 6.8724 7.35677 7.07812 6.74219 7.07812C 6.13542 7.07812 5.6862 6.8776 5.39453 6.47656C 5.10286 6.07292 4.95182 5.47135 4.94141 4.67188L 4.94141 3.70703C 4.94141 2.87109 5.08594 2.25 5.375 1.84375C 5.66406 1.4375 6.11719 1.23438 6.73438 1.23438C 7.34635 1.23438 7.79688 1.43099 8.08594 1.82422C 8.375 2.21484 8.52344 2.81901 8.53125 3.63672L 8.53125 4.57422ZM 7.80859 3.58594C 7.80859 2.97396 7.72266 2.52865 7.55078 2.25C 7.37891 1.96875 7.10677 1.82812 6.73438 1.82812C 6.36458 1.82812 6.09505 1.96745 5.92578 2.24609C 5.75651 2.52474 5.66927 2.95312 5.66406 3.53125L 5.66406 4.6875C 5.66406 5.30208 5.7526 5.75651 5.92969 6.05078C 6.10938 6.34245 6.38021 6.48828 6.74219 6.48828C 7.09896 6.48828 7.36328 6.35026 7.53516 6.07422C 7.70964 5.79818 7.80078 5.36328 7.80859 4.76953L 7.80859 3.58594ZM 13.0234 4.57422C 13.0234 5.42057 12.8789 6.04948 12.5898 6.46094C 12.3008 6.8724 11.849 7.07812 11.2344 7.07812C 10.6276 7.07812 10.1784 6.8776 9.88672 6.47656C 9.59505 6.07292 9.44401 5.47135 9.43359 4.67188L 9.43359 3.70703C 9.43359 2.87109 9.57812 2.25 9.86719 1.84375C 10.1562 1.4375 10.6094 1.23438 11.2266 1.23438C 11.8385 1.23438 12.2891 1.43099 12.5781 1.82422C 12.8672 2.21484 13.0156 2.81901 13.0234 3.63672L 13.0234 4.57422ZM 12.3008 3.58594C 12.3008 2.97396 12.2148 2.52865 12.043 2.25C 11.8711 1.96875 11.599 1.82812 11.2266 1.82812C 10.8568 1.82812 10.5872 1.96745 10.418 2.24609C 10.2487 2.52474 10.1615 2.95312 10.1562 3.53125L 10.1562 4.6875C 10.1562 5.30208 10.2448 5.75651 10.4219 6.05078C 10.6016 6.34245 10.8724 6.48828 11.2344 6.48828C 11.5911 6.48828 11.8555 6.35026 12.0273 6.07422C 12.2018 5.79818 12.293 5.36328 12.3008 4.76953L 12.3008 3.58594Z"/>
<path id="path5_fill" d="M 4.19922 7L 0.472656 7L 0.472656 6.48047L 2.44141 4.29297C 2.73307 3.96224 2.93359 3.69401 3.04297 3.48828C 3.15495 3.27995 3.21094 3.0651 3.21094 2.84375C 3.21094 2.54688 3.12109 2.30339 2.94141 2.11328C 2.76172 1.92318 2.52214 1.82812 2.22266 1.82812C 1.86328 1.82812 1.58333 1.93099 1.38281 2.13672C 1.1849 2.33984 1.08594 2.6237 1.08594 2.98828L 0.363281 2.98828C 0.363281 2.46484 0.53125 2.04167 0.867188 1.71875C 1.20573 1.39583 1.65755 1.23438 2.22266 1.23438C 2.7513 1.23438 3.16927 1.3737 3.47656 1.65234C 3.78385 1.92839 3.9375 2.29688 3.9375 2.75781C 3.9375 3.31771 3.58073 3.98438 2.86719 4.75781L 1.34375 6.41016L 4.19922 6.41016L 4.19922 7ZM 8.53125 4.57422C 8.53125 5.42057 8.38672 6.04948 8.09766 6.46094C 7.80859 6.8724 7.35677 7.07812 6.74219 7.07812C 6.13542 7.07812 5.6862 6.8776 5.39453 6.47656C 5.10286 6.07292 4.95182 5.47135 4.94141 4.67188L 4.94141 3.70703C 4.94141 2.87109 5.08594 2.25 5.375 1.84375C 5.66406 1.4375 6.11719 1.23438 6.73438 1.23438C 7.34635 1.23438 7.79688 1.43099 8.08594 1.82422C 8.375 2.21484 8.52344 2.81901 8.53125 3.63672L 8.53125 4.57422ZM 7.80859 3.58594C 7.80859 2.97396 7.72266 2.52865 7.55078 2.25C 7.37891 1.96875 7.10677 1.82812 6.73438 1.82812C 6.36458 1.82812 6.09505 1.96745 5.92578 2.24609C 5.75651 2.52474 5.66927 2.95312 5.66406 3.53125L 5.66406 4.6875C 5.66406 5.30208 5.7526 5.75651 5.92969 6.05078C 6.10938 6.34245 6.38021 6.48828 6.74219 6.48828C 7.09896 6.48828 7.36328 6.35026 7.53516 6.07422C 7.70964 5.79818 7.80078 5.36328 7.80859 4.76953L 7.80859 3.58594ZM 13.0234 4.57422C 13.0234 5.42057 12.8789 6.04948 12.5898 6.46094C 12.3008 6.8724 11.849 7.07812 11.2344 7.07812C 10.6276 7.07812 10.1784 6.8776 9.88672 6.47656C 9.59505 6.07292 9.44401 5.47135 9.43359 4.67188L 9.43359 3.70703C 9.43359 2.87109 9.57812 2.25 9.86719 1.84375C 10.1562 1.4375 10.6094 1.23438 11.2266 1.23438C 11.8385 1.23438 12.2891 1.43099 12.5781 1.82422C 12.8672 2.21484 13.0156 2.81901 13.0234 3.63672L 13.0234 4.57422ZM 12.3008 3.58594C 12.3008 2.97396 12.2148 2.52865 12.043 2.25C 11.8711 1.96875 11.599 1.82812 11.2266 1.82812C 10.8568 1.82812 10.5872 1.96745 10.418 2.24609C 10.2487 2.52474 10.1615 2.95312 10.1562 3.53125L 10.1562 4.6875C 10.1562 5.30208 10.2448 5.75651 10.4219 6.05078C 10.6016 6.34245 10.8724 6.48828 11.2344 6.48828C 11.5911 6.48828 11.8555 6.35026 12.0273 6.07422C 12.2018 5.79818 12.293 5.36328 12.3008 4.76953L 12.3008 3.58594Z"/>
<path id="path6_fill" d="M 1.52344 3.80469L 2.06641 3.80469C 2.40755 3.79948 2.67578 3.70964 2.87109 3.53516C 3.06641 3.36068 3.16406 3.125 3.16406 2.82812C 3.16406 2.16146 2.83203 1.82812 2.16797 1.82812C 1.85547 1.82812 1.60547 1.91797 1.41797 2.09766C 1.23307 2.27474 1.14062 2.51042 1.14062 2.80469L 0.417969 2.80469C 0.417969 2.35417 0.582031 1.98047 0.910156 1.68359C 1.24089 1.38411 1.66016 1.23438 2.16797 1.23438C 2.70443 1.23438 3.125 1.3763 3.42969 1.66016C 3.73438 1.94401 3.88672 2.33854 3.88672 2.84375C 3.88672 3.09115 3.80599 3.33073 3.64453 3.5625C 3.48568 3.79427 3.26823 3.96745 2.99219 4.08203C 3.30469 4.18099 3.54557 4.34505 3.71484 4.57422C 3.88672 4.80339 3.97266 5.08333 3.97266 5.41406C 3.97266 5.92448 3.80599 6.32943 3.47266 6.62891C 3.13932 6.92839 2.70573 7.07812 2.17188 7.07812C 1.63802 7.07812 1.20312 6.93359 0.867188 6.64453C 0.533854 6.35547 0.367188 5.97396 0.367188 5.5L 1.09375 5.5C 1.09375 5.79948 1.19141 6.03906 1.38672 6.21875C 1.58203 6.39844 1.84375 6.48828 2.17188 6.48828C 2.52083 6.48828 2.78776 6.39714 2.97266 6.21484C 3.15755 6.03255 3.25 5.77083 3.25 5.42969C 3.25 5.09896 3.14844 4.84505 2.94531 4.66797C 2.74219 4.49089 2.44922 4.39974 2.06641 4.39453L 1.52344 4.39453L 1.52344 3.80469ZM 5.29688 4.14844L 5.58594 1.3125L 8.5 1.3125L 8.5 1.98047L 6.19922 1.98047L 6.02734 3.53125C 6.30599 3.36719 6.6224 3.28516 6.97656 3.28516C 7.49479 3.28516 7.90625 3.45703 8.21094 3.80078C 8.51562 4.14193 8.66797 4.60417 8.66797 5.1875C 8.66797 5.77344 8.50911 6.23568 8.19141 6.57422C 7.8763 6.91016 7.4349 7.07812 6.86719 7.07812C 6.36458 7.07812 5.95443 6.9388 5.63672 6.66016C 5.31901 6.38151 5.13802 5.99609 5.09375 5.50391L 5.77734 5.50391C 5.82161 5.82943 5.9375 6.07552 6.125 6.24219C 6.3125 6.40625 6.5599 6.48828 6.86719 6.48828C 7.20312 6.48828 7.46615 6.3737 7.65625 6.14453C 7.84896 5.91536 7.94531 5.59896 7.94531 5.19531C 7.94531 4.8151 7.84115 4.51042 7.63281 4.28125C 7.42708 4.04948 7.15234 3.93359 6.80859 3.93359C 6.49349 3.93359 6.24609 4.0026 6.06641 4.14062L 5.875 4.29688L 5.29688 4.14844ZM 13.0234 4.57422C 13.0234 5.42057 12.8789 6.04948 12.5898 6.46094C 12.3008 6.8724 11.849 7.07812 11.2344 7.07812C 10.6276 7.07812 10.1784 6.8776 9.88672 6.47656C 9.59505 6.07292 9.44401 5.47135 9.43359 4.67188L 9.43359 3.70703C 9.43359 2.87109 9.57812 2.25 9.86719 1.84375C 10.1562 1.4375 10.6094 1.23438 11.2266 1.23438C 11.8385 1.23438 12.2891 1.43099 12.5781 1.82422C 12.8672 2.21484 13.0156 2.81901 13.0234 3.63672L 13.0234 4.57422ZM 12.3008 3.58594C 12.3008 2.97396 12.2148 2.52865 12.043 2.25C 11.8711 1.96875 11.599 1.82812 11.2266 1.82812C 10.8568 1.82812 10.5872 1.96745 10.418 2.24609C 10.2487 2.52474 10.1615 2.95312 10.1562 3.53125L 10.1562 4.6875C 10.1562 5.30208 10.2448 5.75651 10.4219 6.05078C 10.6016 6.34245 10.8724 6.48828 11.2344 6.48828C 11.5911 6.48828 11.8555 6.35026 12.0273 6.07422C 12.2018 5.79818 12.293 5.36328 12.3008 4.76953L 12.3008 3.58594Z"/>
<path id="path7_fill" d="M 0.804688 4.14844L 1.09375 1.3125L 4.00781 1.3125L 4.00781 1.98047L 1.70703 1.98047L 1.53516 3.53125C 1.8138 3.36719 2.13021 3.28516 2.48438 3.28516C 3.0026 3.28516 3.41406 3.45703 3.71875 3.80078C 4.02344 4.14193 4.17578 4.60417 4.17578 5.1875C 4.17578 5.77344 4.01693 6.23568 3.69922 6.57422C 3.38411 6.91016 2.94271 7.07812 2.375 7.07812C 1.8724 7.07812 1.46224 6.9388 1.14453 6.66016C 0.826823 6.38151 0.645833 5.99609 0.601562 5.50391L 1.28516 5.50391C 1.32943 5.82943 1.44531 6.07552 1.63281 6.24219C 1.82031 6.40625 2.06771 6.48828 2.375 6.48828C 2.71094 6.48828 2.97396 6.3737 3.16406 6.14453C 3.35677 5.91536 3.45312 5.59896 3.45312 5.19531C 3.45312 4.8151 3.34896 4.51042 3.14062 4.28125C 2.9349 4.04948 2.66016 3.93359 2.31641 3.93359C 2.0013 3.93359 1.75391 4.0026 1.57422 4.14062L 1.38281 4.29688L 0.804688 4.14844ZM 8.53125 4.57422C 8.53125 5.42057 8.38672 6.04948 8.09766 6.46094C 7.80859 6.8724 7.35677 7.07812 6.74219 7.07812C 6.13542 7.07812 5.6862 6.8776 5.39453 6.47656C 5.10286 6.07292 4.95182 5.47135 4.94141 4.67188L 4.94141 3.70703C 4.94141 2.87109 5.08594 2.25 5.375 1.84375C 5.66406 1.4375 6.11719 1.23438 6.73438 1.23438C 7.34635 1.23438 7.79688 1.43099 8.08594 1.82422C 8.375 2.21484 8.52344 2.81901 8.53125 3.63672L 8.53125 4.57422ZM 7.80859 3.58594C 7.80859 2.97396 7.72266 2.52865 7.55078 2.25C 7.37891 1.96875 7.10677 1.82812 6.73438 1.82812C 6.36458 1.82812 6.09505 1.96745 5.92578 2.24609C 5.75651 2.52474 5.66927 2.95312 5.66406 3.53125L 5.66406 4.6875C 5.66406 5.30208 5.7526 5.75651 5.92969 6.05078C 6.10938 6.34245 6.38021 6.48828 6.74219 6.48828C 7.09896 6.48828 7.36328 6.35026 7.53516 6.07422C 7.70964 5.79818 7.80078 5.36328 7.80859 4.76953L 7.80859 3.58594Z"/>
<path id="path8_fill" d="M 2.84766 7L 2.12109 7L 2.12109 2.18359L 0.664062 2.71875L 0.664062 2.0625L 2.73438 1.28516L 2.84766 1.28516L 2.84766 7ZM 5.29688 4.14844L 5.58594 1.3125L 8.5 1.3125L 8.5 1.98047L 6.19922 1.98047L 6.02734 3.53125C 6.30599 3.36719 6.6224 3.28516 6.97656 3.28516C 7.49479 3.28516 7.90625 3.45703 8.21094 3.80078C 8.51562 4.14193 8.66797 4.60417 8.66797 5.1875C 8.66797 5.77344 8.50911 6.23568 8.19141 6.57422C 7.8763 6.91016 7.4349 7.07812 6.86719 7.07812C 6.36458 7.07812 5.95443 6.9388 5.63672 6.66016C 5.31901 6.38151 5.13802 5.99609 5.09375 5.50391L 5.77734 5.50391C 5.82161 5.82943 5.9375 6.07552 6.125 6.24219C 6.3125 6.40625 6.5599 6.48828 6.86719 6.48828C 7.20312 6.48828 7.46615 6.3737 7.65625 6.14453C 7.84896 5.91536 7.94531 5.59896 7.94531 5.19531C 7.94531 4.8151 7.84115 4.51042 7.63281 4.28125C 7.42708 4.04948 7.15234 3.93359 6.80859 3.93359C 6.49349 3.93359 6.24609 4.0026 6.06641 4.14062L 5.875 4.29688L 5.29688 4.14844ZM 13.0234 4.57422C 13.0234 5.42057 12.8789 6.04948 12.5898 6.46094C 12.3008 6.8724 11.849 7.07812 11.2344 7.07812C 10.6276 7.07812 10.1784 6.8776 9.88672 6.47656C 9.59505 6.07292 9.44401 5.47135 9.43359 4.67188L 9.43359 3.70703C 9.43359 2.87109 9.57812 2.25 9.86719 1.84375C 10.1562 1.4375 10.6094 1.23438 11.2266 1.23438C 11.8385 1.23438 12.2891 1.43099 12.5781 1.82422C 12.8672 2.21484 13.0156 2.81901 13.0234 3.63672L 13.0234 4.57422ZM 12.3008 3.58594C 12.3008 2.97396 12.2148 2.52865 12.043 2.25C 11.8711 1.96875 11.599 1.82812 11.2266 1.82812C 10.8568 1.82812 10.5872 1.96745 10.418 2.24609C 10.2487 2.52474 10.1615 2.95312 10.1562 3.53125L 10.1562 4.6875C 10.1562 5.30208 10.2448 5.75651 10.4219 6.05078C 10.6016 6.34245 10.8724 6.48828 11.2344 6.48828C 11.5911 6.48828 11.8555 6.35026 12.0273 6.07422C 12.2018 5.79818 12.293 5.36328 12.3008 4.76953L 12.3008 3.58594Z"/>
<path id="path9_fill" d="M 1.52344 3.80469L 2.06641 3.80469C 2.40755 3.79948 2.67578 3.70964 2.87109 3.53516C 3.06641 3.36068 3.16406 3.125 3.16406 2.82812C 3.16406 2.16146 2.83203 1.82812 2.16797 1.82812C 1.85547 1.82812 1.60547 1.91797 1.41797 2.09766C 1.23307 2.27474 1.14062 2.51042 1.14062 2.80469L 0.417969 2.80469C 0.417969 2.35417 0.582031 1.98047 0.910156 1.68359C 1.24089 1.38411 1.66016 1.23438 2.16797 1.23438C 2.70443 1.23438 3.125 1.3763 3.42969 1.66016C 3.73438 1.94401 3.88672 2.33854 3.88672 2.84375C 3.88672 3.09115 3.80599 3.33073 3.64453 3.5625C 3.48568 3.79427 3.26823 3.96745 2.99219 4.08203C 3.30469 4.18099 3.54557 4.34505 3.71484 4.57422C 3.88672 4.80339 3.97266 5.08333 3.97266 5.41406C 3.97266 5.92448 3.80599 6.32943 3.47266 6.62891C 3.13932 6.92839 2.70573 7.07812 2.17188 7.07812C 1.63802 7.07812 1.20312 6.93359 0.867188 6.64453C 0.533854 6.35547 0.367188 5.97396 0.367188 5.5L 1.09375 5.5C 1.09375 5.79948 1.19141 6.03906 1.38672 6.21875C 1.58203 6.39844 1.84375 6.48828 2.17188 6.48828C 2.52083 6.48828 2.78776 6.39714 2.97266 6.21484C 3.15755 6.03255 3.25 5.77083 3.25 5.42969C 3.25 5.09896 3.14844 4.84505 2.94531 4.66797C 2.74219 4.49089 2.44922 4.39974 2.06641 4.39453L 1.52344 4.39453L 1.52344 3.80469ZM 8.53125 4.57422C 8.53125 5.42057 8.38672 6.04948 8.09766 6.46094C 7.80859 6.8724 7.35677 7.07812 6.74219 7.07812C 6.13542 7.07812 5.6862 6.8776 5.39453 6.47656C 5.10286 6.07292 4.95182 5.47135 4.94141 4.67188L 4.94141 3.70703C 4.94141 2.87109 5.08594 2.25 5.375 1.84375C 5.66406 1.4375 6.11719 1.23438 6.73438 1.23438C 7.34635 1.23438 7.79688 1.43099 8.08594 1.82422C 8.375 2.21484 8.52344 2.81901 8.53125 3.63672L 8.53125 4.57422ZM 7.80859 3.58594C 7.80859 2.97396 7.72266 2.52865 7.55078 2.25C 7.37891 1.96875 7.10677 1.82812 6.73438 1.82812C 6.36458 1.82812 6.09505 1.96745 5.92578 2.24609C 5.75651 2.52474 5.66927 2.95312 5.66406 3.53125L 5.66406 4.6875C 5.66406 5.30208 5.7526 5.75651 5.92969 6.05078C 6.10938 6.34245 6.38021 6.48828 6.74219 6.48828C 7.09896 6.48828 7.36328 6.35026 7.53516 6.07422C 7.70964 5.79818 7.80078 5.36328 7.80859 4.76953L 7.80859 3.58594ZM 13.0234 4.57422C 13.0234 5.42057 12.8789 6.04948 12.5898 6.46094C 12.3008 6.8724 11.849 7.07812 11.2344 7.07812C 10.6276 7.07812 10.1784 6.8776 9.88672 6.47656C 9.59505 6.07292 9.44401 5.47135 9.43359 4.67188L 9.43359 3.70703C 9.43359 2.87109 9.57812 2.25 9.86719 1.84375C 10.1562 1.4375 10.6094 1.23438 11.2266 1.23438C 11.8385 1.23438 12.2891 1.43099 12.5781 1.82422C 12.8672 2.21484 13.0156 2.81901 13.0234 3.63672L 13.0234 4.57422ZM 12.3008 3.58594C 12.3008 2.97396 12.2148 2.52865 12.043 2.25C 11.8711 1.96875 11.599 1.82812 11.2266 1.82812C 10.8568 1.82812 10.5872 1.96745 10.418 2.24609C 10.2487 2.52474 10.1615 2.95312 10.1562 3.53125L 10.1562 4.6875C 10.1562 5.30208 10.2448 5.75651 10.4219 6.05078C 10.6016 6.34245 10.8724 6.48828 11.2344 6.48828C 11.5911 6.48828 11.8555 6.35026 12.0273 6.07422C 12.2018 5.79818 12.293 5.36328 12.3008 4.76953L 12.3008 3.58594Z"/>
<path id="path10_fill" d="M 3.52344 5.08984L 4.3125 5.08984L 4.3125 5.67969L 3.52344 5.67969L 3.52344 7L 2.79688 7L 2.79688 5.67969L 0.207031 5.67969L 0.207031 5.25391L 2.75391 1.3125L 3.52344 1.3125L 3.52344 5.08984ZM 1.02734 5.08984L 2.79688 5.08984L 2.79688 2.30078L 2.71094 2.45703L 1.02734 5.08984ZM 8.53125 4.57422C 8.53125 5.42057 8.38672 6.04948 8.09766 6.46094C 7.80859 6.8724 7.35677 7.07812 6.74219 7.07812C 6.13542 7.07812 5.6862 6.8776 5.39453 6.47656C 5.10286 6.07292 4.95182 5.47135 4.94141 4.67188L 4.94141 3.70703C 4.94141 2.87109 5.08594 2.25 5.375 1.84375C 5.66406 1.4375 6.11719 1.23438 6.73438 1.23438C 7.34635 1.23438 7.79688 1.43099 8.08594 1.82422C 8.375 2.21484 8.52344 2.81901 8.53125 3.63672L 8.53125 4.57422ZM 7.80859 3.58594C 7.80859 2.97396 7.72266 2.52865 7.55078 2.25C 7.37891 1.96875 7.10677 1.82812 6.73438 1.82812C 6.36458 1.82812 6.09505 1.96745 5.92578 2.24609C 5.75651 2.52474 5.66927 2.95312 5.66406 3.53125L 5.66406 4.6875C 5.66406 5.30208 5.7526 5.75651 5.92969 6.05078C 6.10938 6.34245 6.38021 6.48828 6.74219 6.48828C 7.09896 6.48828 7.36328 6.35026 7.53516 6.07422C 7.70964 5.79818 7.80078 5.36328 7.80859 4.76953L 7.80859 3.58594ZM 13.0234 4.57422C 13.0234 5.42057 12.8789 6.04948 12.5898 6.46094C 12.3008 6.8724 11.849 7.07812 11.2344 7.07812C 10.6276 7.07812 10.1784 6.8776 9.88672 6.47656C 9.59505 6.07292 9.44401 5.47135 9.43359 4.67188L 9.43359 3.70703C 9.43359 2.87109 9.57812 2.25 9.86719 1.84375C 10.1562 1.4375 10.6094 1.23438 11.2266 1.23438C 11.8385 1.23438 12.2891 1.43099 12.5781 1.82422C 12.8672 2.21484 13.0156 2.81901 13.0234 3.63672L 13.0234 4.57422ZM 12.3008 3.58594C 12.3008 2.97396 12.2148 2.52865 12.043 2.25C 11.8711 1.96875 11.599 1.82812 11.2266 1.82812C 10.8568 1.82812 10.5872 1.96745 10.418 2.24609C 10.2487 2.52474 10.1615 2.95312 10.1562 3.53125L 10.1562 4.6875C 10.1562 5.30208 10.2448 5.75651 10.4219 6.05078C 10.6016 6.34245 10.8724 6.48828 11.2344 6.48828C 11.5911 6.48828 11.8555 6.35026 12.0273 6.07422C 12.2018 5.79818 12.293 5.36328 12.3008 4.76953L 12.3008 3.58594Z"/>
<path id="path11_stroke" d="M 0.5 -1L 0 -1L 0 0L 0.5 0L 0.5 -1ZM 3.5 0L 4 0L 4 -1L 3.5 -1L 3.5 0ZM 0.5 0L 3.5 0L 3.5 -1L 0.5 -1L 0.5 0Z"/>
<path id="path12_fill" d="M 3 1.5C 3 2.32843 2.32843 3 1.5 3C 0.671573 3 0 2.32843 0 1.5C 0 0.671573 0.671573 0 1.5 0C 2.32843 0 3 0.671573 3 1.5Z"/>
<path id="path13_fill" d="M 6.28906 21L 5.34668 21L 1.76758 15.5215L 1.76758 21L 0.825195 21L 0.825195 13.8906L 1.76758 13.8906L 5.35645 19.3936L 5.35645 13.8906L 6.28906 13.8906L 6.28906 21ZM 11.0742 20.4775C 10.7227 20.891 10.2067 21.0977 9.52637 21.0977C 8.96322 21.0977 8.53353 20.9349 8.2373 20.6094C 7.94434 20.2806 7.79622 19.7956 7.79297 19.1543L 7.79297 15.7168L 8.69629 15.7168L 8.69629 19.1299C 8.69629 19.9307 9.02181 20.3311 9.67285 20.3311C 10.363 20.3311 10.8219 20.0739 11.0498 19.5596L 11.0498 15.7168L 11.9531 15.7168L 11.9531 21L 11.0938 21L 11.0742 20.4775ZM 14.1797 15.7168L 14.2041 16.3027C 14.5915 15.847 15.1139 15.6191 15.7715 15.6191C 16.5104 15.6191 17.0133 15.9023 17.2803 16.4688C 17.4561 16.2148 17.6839 16.0098 17.9639 15.8535C 18.2471 15.6973 18.5807 15.6191 18.9648 15.6191C 20.1237 15.6191 20.7129 16.2327 20.7324 17.46L 20.7324 21L 19.8291 21L 19.8291 17.5137C 19.8291 17.1361 19.7428 16.8545 19.5703 16.6689C 19.3978 16.4801 19.1081 16.3857 18.7012 16.3857C 18.3659 16.3857 18.0876 16.4867 17.8662 16.6885C 17.6449 16.887 17.5163 17.1556 17.4805 17.4941L 17.4805 21L 16.5723 21L 16.5723 17.5381C 16.5723 16.7699 16.1963 16.3857 15.4443 16.3857C 14.8519 16.3857 14.4466 16.638 14.2285 17.1426L 14.2285 21L 13.3252 21L 13.3252 15.7168L 14.1797 15.7168ZM 26.5723 18.417C 26.5723 19.2243 26.3867 19.8737 26.0156 20.3652C 25.6445 20.8535 25.1465 21.0977 24.5215 21.0977C 23.8542 21.0977 23.3382 20.8617 22.9736 20.3896L 22.9297 21L 22.0996 21L 22.0996 13.5L 23.0029 13.5L 23.0029 16.2979C 23.3675 15.8454 23.8704 15.6191 24.5117 15.6191C 25.153 15.6191 25.6559 15.8617 26.0205 16.3467C 26.3883 16.8317 26.5723 17.4958 26.5723 18.3389L 26.5723 18.417ZM 25.6689 18.3145C 25.6689 17.6992 25.5501 17.224 25.3125 16.8887C 25.0749 16.5534 24.7331 16.3857 24.2871 16.3857C 23.6914 16.3857 23.2633 16.6624 23.0029 17.2158L 23.0029 19.501C 23.2796 20.0544 23.7109 20.3311 24.2969 20.3311C 24.7298 20.3311 25.0667 20.1634 25.3076 19.8281C 25.5485 19.4928 25.6689 18.9883 25.6689 18.3145ZM 29.9072 21.0977C 29.1911 21.0977 28.6084 20.8633 28.1592 20.3945C 27.71 19.9225 27.4854 19.2926 27.4854 18.5049L 27.4854 18.3389C 27.4854 17.8148 27.5846 17.3477 27.7832 16.9375C 27.985 16.5241 28.265 16.2018 28.623 15.9707C 28.9844 15.7363 29.375 15.6191 29.7949 15.6191C 30.4818 15.6191 31.0156 15.8454 31.3965 16.2979C 31.7773 16.7503 31.9678 17.3981 31.9678 18.2412L 31.9678 18.6172L 28.3887 18.6172C 28.4017 19.138 28.5531 19.5596 28.8428 19.8818C 29.1357 20.2008 29.5068 20.3604 29.9561 20.3604C 30.2751 20.3604 30.5452 20.2952 30.7666 20.165C 30.988 20.0348 31.1816 19.8623 31.3477 19.6475L 31.8994 20.0771C 31.4567 20.7575 30.7926 21.0977 29.9072 21.0977ZM 29.7949 16.3613C 29.4303 16.3613 29.1243 16.4948 28.877 16.7617C 28.6296 17.0254 28.4766 17.3965 28.418 17.875L 31.0645 17.875L 31.0645 17.8066C 31.0384 17.3477 30.9147 16.9928 30.6934 16.7422C 30.472 16.4883 30.1725 16.3613 29.7949 16.3613ZM 35.5713 16.5273C 35.4346 16.5046 35.2865 16.4932 35.127 16.4932C 34.5345 16.4932 34.1325 16.7454 33.9209 17.25L 33.9209 21L 33.0176 21L 33.0176 15.7168L 33.8965 15.7168L 33.9111 16.3271C 34.2074 15.8551 34.6273 15.6191 35.1709 15.6191C 35.3467 15.6191 35.4801 15.6419 35.5713 15.6875L 35.5713 16.5273ZM 38.6475 18.3096C 38.6475 17.792 38.7484 17.3265 38.9502 16.9131C 39.1553 16.4997 39.4385 16.1807 39.7998 15.9561C 40.1644 15.7314 40.5794 15.6191 41.0449 15.6191C 41.7643 15.6191 42.3454 15.8682 42.7881 16.3662C 43.234 16.8643 43.457 17.5267 43.457 18.3535L 43.457 18.417C 43.457 18.9313 43.3577 19.3936 43.1592 19.8037C 42.9639 20.2106 42.6823 20.528 42.3145 20.7559C 41.9499 20.9837 41.5299 21.0977 41.0547 21.0977C 40.3385 21.0977 39.7575 20.8486 39.3115 20.3506C 38.8688 19.8525 38.6475 19.1934 38.6475 18.373L 38.6475 18.3096ZM 39.5557 18.417C 39.5557 19.0029 39.6908 19.4733 39.9609 19.8281C 40.2344 20.1829 40.599 20.3604 41.0547 20.3604C 41.5137 20.3604 41.8783 20.1813 42.1484 19.8232C 42.4186 19.4619 42.5537 18.9574 42.5537 18.3096C 42.5537 17.7301 42.4154 17.2614 42.1387 16.9033C 41.8652 16.542 41.5007 16.3613 41.0449 16.3613C 40.599 16.3613 40.2393 16.5387 39.9658 16.8936C 39.6924 17.2484 39.5557 17.7562 39.5557 18.417ZM 45.0342 21L 45.0342 16.415L 44.1992 16.415L 44.1992 15.7168L 45.0342 15.7168L 45.0342 15.1748C 45.0342 14.6084 45.1855 14.1706 45.4883 13.8613C 45.791 13.5521 46.2191 13.3975 46.7725 13.3975C 46.9808 13.3975 47.1875 13.4251 47.3926 13.4805L 47.3438 14.2129C 47.1908 14.1836 47.028 14.1689 46.8555 14.1689C 46.5625 14.1689 46.3363 14.2552 46.1768 14.4277C 46.0173 14.597 45.9375 14.8411 45.9375 15.1602L 45.9375 15.7168L 47.0654 15.7168L 47.0654 16.415L 45.9375 16.415L 45.9375 21L 45.0342 21ZM 55.0195 18.417C 55.0195 19.2243 54.834 19.8737 54.4629 20.3652C 54.0918 20.8535 53.5938 21.0977 52.9688 21.0977C 52.3014 21.0977 51.7855 20.8617 51.4209 20.3896L 51.377 21L 50.5469 21L 50.5469 13.5L 51.4502 13.5L 51.4502 16.2979C 51.8148 15.8454 52.3177 15.6191 52.959 15.6191C 53.6003 15.6191 54.1032 15.8617 54.4678 16.3467C 54.8356 16.8317 55.0195 17.4958 55.0195 18.3389L 55.0195 18.417ZM 54.1162 18.3145C 54.1162 17.6992 53.9974 17.224 53.7598 16.8887C 53.5221 16.5534 53.1803 16.3857 52.7344 16.3857C 52.1387 16.3857 51.7106 16.6624 51.4502 17.2158L 51.4502 19.501C 51.7269 20.0544 52.1582 20.3311 52.7441 20.3311C 53.1771 20.3311 53.514 20.1634 53.7549 19.8281C 53.9958 19.4928 54.1162 18.9883 54.1162 18.3145ZM 58.3545 21.0977C 57.6383 21.0977 57.0557 20.8633 56.6064 20.3945C 56.1572 19.9225 55.9326 19.2926 55.9326 18.5049L 55.9326 18.3389C 55.9326 17.8148 56.0319 17.3477 56.2305 16.9375C 56.4323 16.5241 56.7122 16.2018 57.0703 15.9707C 57.4316 15.7363 57.8223 15.6191 58.2422 15.6191C 58.929 15.6191 59.4629 15.8454 59.8438 16.2979C 60.2246 16.7503 60.415 17.3981 60.415 18.2412L 60.415 18.6172L 56.8359 18.6172C 56.849 19.138 57.0003 19.5596 57.29 19.8818C 57.583 20.2008 57.9541 20.3604 58.4033 20.3604C 58.7223 20.3604 58.9925 20.2952 59.2139 20.165C 59.4352 20.0348 59.6289 19.8623 59.7949 19.6475L 60.3467 20.0771C 59.904 20.7575 59.2399 21.0977 58.3545 21.0977ZM 58.2422 16.3613C 57.8776 16.3613 57.5716 16.4948 57.3242 16.7617C 57.0768 17.0254 56.9238 17.3965 56.8652 17.875L 59.5117 17.875L 59.5117 17.8066C 59.4857 17.3477 59.362 16.9928 59.1406 16.7422C 58.9193 16.4883 58.6198 16.3613 58.2422 16.3613ZM 61.2451 18.3145C 61.2451 17.5039 61.4372 16.8529 61.8213 16.3613C 62.2054 15.8665 62.7083 15.6191 63.3301 15.6191C 63.9486 15.6191 64.4385 15.8307 64.7998 16.2539L 64.7998 13.5L 65.7031 13.5L 65.7031 21L 64.873 21L 64.8291 20.4336C 64.4678 20.8763 63.9648 21.0977 63.3203 21.0977C 62.7083 21.0977 62.2087 20.847 61.8213 20.3457C 61.4372 19.8444 61.2451 19.1901 61.2451 18.3828L 61.2451 18.3145ZM 62.1484 18.417C 62.1484 19.016 62.2721 19.4847 62.5195 19.8232C 62.7669 20.1618 63.1087 20.3311 63.5449 20.3311C 64.1178 20.3311 64.5361 20.0739 64.7998 19.5596L 64.7998 17.1328C 64.5296 16.6348 64.1146 16.3857 63.5547 16.3857C 63.112 16.3857 62.7669 16.5566 62.5195 16.8984C 62.2721 17.2402 62.1484 17.7464 62.1484 18.417ZM 69.6631 16.5273C 69.5264 16.5046 69.3783 16.4932 69.2188 16.4932C 68.6263 16.4932 68.2243 16.7454 68.0127 17.25L 68.0127 21L 67.1094 21L 67.1094 15.7168L 67.9883 15.7168L 68.0029 16.3271C 68.2992 15.8551 68.7191 15.6191 69.2627 15.6191C 69.4385 15.6191 69.5719 15.6419 69.6631 15.6875L 69.6631 16.5273ZM 70.1611 18.3096C 70.1611 17.792 70.262 17.3265 70.4639 16.9131C 70.6689 16.4997 70.9521 16.1807 71.3135 15.9561C 71.6781 15.7314 72.0931 15.6191 72.5586 15.6191C 73.278 15.6191 73.859 15.8682 74.3018 16.3662C 74.7477 16.8643 74.9707 17.5267 74.9707 18.3535L 74.9707 18.417C 74.9707 18.9313 74.8714 19.3936 74.6729 19.8037C 74.4775 20.2106 74.196 20.528 73.8281 20.7559C 73.4635 20.9837 73.0436 21.0977 72.5684 21.0977C 71.8522 21.0977 71.2712 20.8486 70.8252 20.3506C 70.3825 19.8525 70.1611 19.1934 70.1611 18.373L 70.1611 18.3096ZM 71.0693 18.417C 71.0693 19.0029 71.2044 19.4733 71.4746 19.8281C 71.748 20.1829 72.1126 20.3604 72.5684 20.3604C 73.0273 20.3604 73.3919 20.1813 73.6621 19.8232C 73.9323 19.4619 74.0674 18.9574 74.0674 18.3096C 74.0674 17.7301 73.929 17.2614 73.6523 16.9033C 73.3789 16.542 73.0143 16.3613 72.5586 16.3613C 72.1126 16.3613 71.7529 16.5387 71.4795 16.8936C 71.2061 17.2484 71.0693 17.7562 71.0693 18.417ZM 75.8643 18.3096C 75.8643 17.792 75.9652 17.3265 76.167 16.9131C 76.3721 16.4997 76.6553 16.1807 77.0166 15.9561C 77.3812 15.7314 77.7962 15.6191 78.2617 15.6191C 78.9811 15.6191 79.5622 15.8682 80.0049 16.3662C 80.4508 16.8643 80.6738 17.5267 80.6738 18.3535L 80.6738 18.417C 80.6738 18.9313 80.5745 19.3936 80.376 19.8037C 80.1807 20.2106 79.8991 20.528 79.5312 20.7559C 79.1667 20.9837 78.7467 21.0977 78.2715 21.0977C 77.5553 21.0977 76.9743 20.8486 76.5283 20.3506C 76.0856 19.8525 75.8643 19.1934 75.8643 18.373L 75.8643 18.3096ZM 76.7725 18.417C 76.7725 19.0029 76.9076 19.4733 77.1777 19.8281C 77.4512 20.1829 77.8158 20.3604 78.2715 20.3604C 78.7305 20.3604 79.0951 20.1813 79.3652 19.8232C 79.6354 19.4619 79.7705 18.9574 79.7705 18.3096C 79.7705 17.7301 79.6322 17.2614 79.3555 16.9033C 79.082 16.542 78.7174 16.3613 78.2617 16.3613C 77.8158 16.3613 77.4561 16.5387 77.1826 16.8936C 76.9092 17.2484 76.7725 17.7562 76.7725 18.417ZM 82.6562 15.7168L 82.6807 16.3027C 83.068 15.847 83.5905 15.6191 84.248 15.6191C 84.987 15.6191 85.4899 15.9023 85.7568 16.4688C 85.9326 16.2148 86.1605 16.0098 86.4404 15.8535C 86.7236 15.6973 87.0573 15.6191 87.4414 15.6191C 88.6003 15.6191 89.1895 16.2327 89.209 17.46L 89.209 21L 88.3057 21L 88.3057 17.5137C 88.3057 17.1361 88.2194 16.8545 88.0469 16.6689C 87.8743 16.4801 87.5846 16.3857 87.1777 16.3857C 86.8424 16.3857 86.5641 16.4867 86.3428 16.6885C 86.1214 16.887 85.9928 17.1556 85.957 17.4941L 85.957 21L 85.0488 21L 85.0488 17.5381C 85.0488 16.7699 84.6729 16.3857 83.9209 16.3857C 83.3285 16.3857 82.9232 16.638 82.7051 17.1426L 82.7051 21L 81.8018 21L 81.8018 15.7168L 82.6562 15.7168ZM 93.6523 19.5986C 93.6523 19.3545 93.5596 19.1657 93.374 19.0322C 93.1917 18.8955 92.8711 18.7783 92.4121 18.6807C 91.9564 18.583 91.5934 18.4658 91.3232 18.3291C 91.0563 18.1924 90.8577 18.0296 90.7275 17.8408C 90.6006 17.652 90.5371 17.4274 90.5371 17.167C 90.5371 16.734 90.7194 16.3678 91.084 16.0684C 91.4518 15.7689 91.9206 15.6191 92.4902 15.6191C 93.0892 15.6191 93.5742 15.7738 93.9453 16.083C 94.3197 16.3923 94.5068 16.7878 94.5068 17.2695L 93.5986 17.2695C 93.5986 17.0221 93.4928 16.8089 93.2812 16.6299C 93.0729 16.4508 92.8092 16.3613 92.4902 16.3613C 92.1615 16.3613 91.9043 16.4329 91.7188 16.5762C 91.5332 16.7194 91.4404 16.9066 91.4404 17.1377C 91.4404 17.3558 91.5267 17.5202 91.6992 17.6309C 91.8717 17.7415 92.1826 17.8473 92.6318 17.9482C 93.0843 18.0492 93.4505 18.1696 93.7305 18.3096C 94.0104 18.4495 94.2171 18.6188 94.3506 18.8174C 94.4873 19.0127 94.5557 19.252 94.5557 19.5352C 94.5557 20.0072 94.3669 20.3864 93.9893 20.6729C 93.6117 20.9561 93.1217 21.0977 92.5195 21.0977C 92.0964 21.0977 91.722 21.0228 91.3965 20.873C 91.071 20.7233 90.8154 20.515 90.6299 20.248C 90.4476 19.9779 90.3564 19.6865 90.3564 19.374L 91.2598 19.374C 91.276 19.6768 91.3965 19.9176 91.6211 20.0967C 91.849 20.2725 92.1484 20.3604 92.5195 20.3604C 92.8613 20.3604 93.1348 20.292 93.3398 20.1553C 93.5482 20.0153 93.6523 19.8298 93.6523 19.5986Z"/>
<path id="path14_fill" d="M 2.45605 5.64551L 3.62793 3.7168L 4.68262 3.7168L 2.9541 6.3291L 4.73633 9L 3.69141 9L 2.4707 7.02246L 1.25 9L 0.200195 9L 1.98242 6.3291L 0.253906 3.7168L 1.29883 3.7168L 2.45605 5.64551Z"/>
<path id="path15_fill" d="M 2.11523 7.66016L 2.11523 11L 0.990234 11L 0.990234 2.46875L 4.13672 2.46875C 5.07031 2.46875 5.80078 2.70703 6.32812 3.18359C 6.85938 3.66016 7.125 4.29102 7.125 5.07617C 7.125 5.9043 6.86523 6.54297 6.3457 6.99219C 5.83008 7.4375 5.08984 7.66016 4.125 7.66016L 2.11523 7.66016ZM 2.11523 6.74023L 4.13672 6.74023C 4.73828 6.74023 5.19922 6.59961 5.51953 6.31836C 5.83984 6.0332 6 5.62305 6 5.08789C 6 4.58008 5.83984 4.17383 5.51953 3.86914C 5.19922 3.56445 4.75977 3.40625 4.20117 3.39453L 2.11523 3.39453L 2.11523 6.74023ZM 11.4551 5.63281C 11.291 5.60547 11.1133 5.5918 10.9219 5.5918C 10.2109 5.5918 9.72852 5.89453 9.47461 6.5L 9.47461 11L 8.39062 11L 8.39062 4.66016L 9.44531 4.66016L 9.46289 5.39258C 9.81836 4.82617 10.3223 4.54297 10.9746 4.54297C 11.1855 4.54297 11.3457 4.57031 11.4551 4.625L 11.4551 5.63281ZM 13.6348 11L 12.5508 11L 12.5508 4.66016L 13.6348 4.66016L 13.6348 11ZM 12.4629 2.97852C 12.4629 2.80273 12.5156 2.6543 12.6211 2.5332C 12.7305 2.41211 12.8906 2.35156 13.1016 2.35156C 13.3125 2.35156 13.4727 2.41211 13.582 2.5332C 13.6914 2.6543 13.7461 2.80273 13.7461 2.97852C 13.7461 3.1543 13.6914 3.30078 13.582 3.41797C 13.4727 3.53516 13.3125 3.59375 13.1016 3.59375C 12.8906 3.59375 12.7305 3.53516 12.6211 3.41797C 12.5156 3.30078 12.4629 3.1543 12.4629 2.97852ZM 17.918 10.2324C 18.3047 10.2324 18.6426 10.1152 18.9316 9.88086C 19.2207 9.64648 19.3809 9.35352 19.4121 9.00195L 20.4375 9.00195C 20.418 9.36523 20.293 9.71094 20.0625 10.0391C 19.832 10.3672 19.5234 10.6289 19.1367 10.8242C 18.7539 11.0195 18.3477 11.1172 17.918 11.1172C 17.0547 11.1172 16.3672 10.8301 15.8555 10.2559C 15.3477 9.67773 15.0938 8.88867 15.0938 7.88867L 15.0938 7.70703C 15.0938 7.08984 15.207 6.54102 15.4336 6.06055C 15.6602 5.58008 15.9844 5.20703 16.4062 4.94141C 16.832 4.67578 17.334 4.54297 17.9121 4.54297C 18.623 4.54297 19.2129 4.75586 19.6816 5.18164C 20.1543 5.60742 20.4062 6.16016 20.4375 6.83984L 19.4121 6.83984C 19.3809 6.42969 19.2246 6.09375 18.9434 5.83203C 18.666 5.56641 18.3223 5.43359 17.9121 5.43359C 17.3613 5.43359 16.9336 5.63281 16.6289 6.03125C 16.3281 6.42578 16.1777 6.99805 16.1777 7.74805L 16.1777 7.95312C 16.1777 8.68359 16.3281 9.24609 16.6289 9.64062C 16.9297 10.0352 17.3594 10.2324 17.918 10.2324ZM 24.2871 11.1172C 23.4277 11.1172 22.7285 10.8359 22.1895 10.2734C 21.6504 9.70703 21.3809 8.95117 21.3809 8.00586L 21.3809 7.80664C 21.3809 7.17773 21.5 6.61719 21.7383 6.125C 21.9805 5.62891 22.3164 5.24219 22.7461 4.96484C 23.1797 4.68359 23.6484 4.54297 24.1523 4.54297C 24.9766 4.54297 25.6172 4.81445 26.0742 5.35742C 26.5312 5.90039 26.7598 6.67773 26.7598 7.68945L 26.7598 8.14062L 22.4648 8.14062C 22.4805 8.76562 22.6621 9.27148 23.0098 9.6582C 23.3613 10.041 23.8066 10.2324 24.3457 10.2324C 24.7285 10.2324 25.0527 10.1543 25.3184 9.99805C 25.584 9.8418 25.8164 9.63477 26.0156 9.37695L 26.6777 9.89258C 26.1465 10.709 25.3496 11.1172 24.2871 11.1172ZM 24.1523 5.43359C 23.7148 5.43359 23.3477 5.59375 23.0508 5.91406C 22.7539 6.23047 22.5703 6.67578 22.5 7.25L 25.6758 7.25L 25.6758 7.16797C 25.6445 6.61719 25.4961 6.19141 25.2305 5.89062C 24.9648 5.58594 24.6055 5.43359 24.1523 5.43359Z"/>
<path id="path16_fill" d="M 0.804688 4.14844L 1.09375 1.3125L 4.00781 1.3125L 4.00781 1.98047L 1.70703 1.98047L 1.53516 3.53125C 1.8138 3.36719 2.13021 3.28516 2.48438 3.28516C 3.0026 3.28516 3.41406 3.45703 3.71875 3.80078C 4.02344 4.14193 4.17578 4.60417 4.17578 5.1875C 4.17578 5.77344 4.01693 6.23568 3.69922 6.57422C 3.38411 6.91016 2.94271 7.07812 2.375 7.07812C 1.8724 7.07812 1.46224 6.9388 1.14453 6.66016C 0.826823 6.38151 0.645833 5.99609 0.601562 5.50391L 1.28516 5.50391C 1.32943 5.82943 1.44531 6.07552 1.63281 6.24219C 1.82031 6.40625 2.06771 6.48828 2.375 6.48828C 2.71094 6.48828 2.97396 6.3737 3.16406 6.14453C 3.35677 5.91536 3.45312 5.59896 3.45312 5.19531C 3.45312 4.8151 3.34896 4.51042 3.14062 4.28125C 2.9349 4.04948 2.66016 3.93359 2.31641 3.93359C 2.0013 3.93359 1.75391 4.0026 1.57422 4.14062L 1.38281 4.29688L 0.804688 4.14844ZM 8.53125 4.57422C 8.53125 5.42057 8.38672 6.04948 8.09766 6.46094C 7.80859 6.8724 7.35677 7.07812 6.74219 7.07812C 6.13542 7.07812 5.6862 6.8776 5.39453 6.47656C 5.10286 6.07292 4.95182 5.47135 4.94141 4.67188L 4.94141 3.70703C 4.94141 2.87109 5.08594 2.25 5.375 1.84375C 5.66406 1.4375 6.11719 1.23438 6.73438 1.23438C 7.34635 1.23438 7.79688 1.43099 8.08594 1.82422C 8.375 2.21484 8.52344 2.81901 8.53125 3.63672L 8.53125 4.57422ZM 7.80859 3.58594C 7.80859 2.97396 7.72266 2.52865 7.55078 2.25C 7.37891 1.96875 7.10677 1.82812 6.73438 1.82812C 6.36458 1.82812 6.09505 1.96745 5.92578 2.24609C 5.75651 2.52474 5.66927 2.95312 5.66406 3.53125L 5.66406 4.6875C 5.66406 5.30208 5.7526 5.75651 5.92969 6.05078C 6.10938 6.34245 6.38021 6.48828 6.74219 6.48828C 7.09896 6.48828 7.36328 6.35026 7.53516 6.07422C 7.70964 5.79818 7.80078 5.36328 7.80859 4.76953L 7.80859 3.58594ZM 13.0234 4.57422C 13.0234 5.42057 12.8789 6.04948 12.5898 6.46094C 12.3008 6.8724 11.849 7.07812 11.2344 7.07812C 10.6276 7.07812 10.1784 6.8776 9.88672 6.47656C 9.59505 6.07292 9.44401 5.47135 9.43359 4.67188L 9.43359 3.70703C 9.43359 2.87109 9.57812 2.25 9.86719 1.84375C 10.1562 1.4375 10.6094 1.23438 11.2266 1.23438C 11.8385 1.23438 12.2891 1.43099 12.5781 1.82422C 12.8672 2.21484 13.0156 2.81901 13.0234 3.63672L 13.0234 4.57422ZM 12.3008 3.58594C 12.3008 2.97396 12.2148 2.52865 12.043 2.25C 11.8711 1.96875 11.599 1.82812 11.2266 1.82812C 10.8568 1.82812 10.5872 1.96745 10.418 2.24609C 10.2487 2.52474 10.1615 2.95312 10.1562 3.53125L 10.1562 4.6875C 10.1562 5.30208 10.2448 5.75651 10.4219 6.05078C 10.6016 6.34245 10.8724 6.48828 11.2344 6.48828C 11.5911 6.48828 11.8555 6.35026 12.0273 6.07422C 12.2018 5.79818 12.293 5.36328 12.3008 4.76953L 12.3008 3.58594Z"/>
<path id="path17_fill" d="M 5.24902 9L 0.59082 9L 0.59082 8.35059L 3.05176 5.61621C 3.41634 5.2028 3.66699 4.86751 3.80371 4.61035C 3.94368 4.34993 4.01367 4.08138 4.01367 3.80469C 4.01367 3.43359 3.90137 3.12923 3.67676 2.8916C 3.45215 2.65397 3.15267 2.53516 2.77832 2.53516C 2.3291 2.53516 1.97917 2.66374 1.72852 2.9209C 1.48112 3.1748 1.35742 3.52962 1.35742 3.98535L 0.454102 3.98535C 0.454102 3.33105 0.664062 2.80208 1.08398 2.39844C 1.50716 1.99479 2.07194 1.79297 2.77832 1.79297C 3.43913 1.79297 3.96159 1.96712 4.3457 2.31543C 4.72982 2.66048 4.92188 3.12109 4.92188 3.69727C 4.92188 4.39714 4.47591 5.23047 3.58398 6.19727L 1.67969 8.2627L 5.24902 8.2627L 5.24902 9Z"/>
<path id="path18_fill" d="M 1.9043 5.00586L 2.58301 5.00586C 3.00944 4.99935 3.34473 4.88704 3.58887 4.66895C 3.83301 4.45085 3.95508 4.15625 3.95508 3.78516C 3.95508 2.95182 3.54004 2.53516 2.70996 2.53516C 2.31934 2.53516 2.00684 2.64746 1.77246 2.87207C 1.54134 3.09342 1.42578 3.38802 1.42578 3.75586L 0.522461 3.75586C 0.522461 3.19271 0.727539 2.72559 1.1377 2.35449C 1.55111 1.98014 2.0752 1.79297 2.70996 1.79297C 3.38053 1.79297 3.90625 1.97038 4.28711 2.3252C 4.66797 2.68001 4.8584 3.17318 4.8584 3.80469C 4.8584 4.11393 4.75749 4.41341 4.55566 4.70312C 4.3571 4.99284 4.08529 5.20931 3.74023 5.35254C 4.13086 5.47624 4.43197 5.68132 4.64355 5.96777C 4.8584 6.25423 4.96582 6.60417 4.96582 7.01758C 4.96582 7.6556 4.75749 8.16178 4.34082 8.53613C 3.92415 8.91048 3.38216 9.09766 2.71484 9.09766C 2.04753 9.09766 1.50391 8.91699 1.08398 8.55566C 0.667318 8.19434 0.458984 7.71745 0.458984 7.125L 1.36719 7.125C 1.36719 7.49935 1.48926 7.79883 1.7334 8.02344C 1.97754 8.24805 2.30469 8.36035 2.71484 8.36035C 3.15104 8.36035 3.4847 8.24642 3.71582 8.01855C 3.94694 7.79069 4.0625 7.46354 4.0625 7.03711C 4.0625 6.6237 3.93555 6.30632 3.68164 6.08496C 3.42773 5.86361 3.06152 5.74967 2.58301 5.74316L 1.9043 5.74316L 1.9043 5.00586Z"/>
<path id="path19_fill" d="M 4.4043 6.6123L 5.39062 6.6123L 5.39062 7.34961L 4.4043 7.34961L 4.4043 9L 3.49609 9L 3.49609 7.34961L 0.258789 7.34961L 0.258789 6.81738L 3.44238 1.89062L 4.4043 1.89062L 4.4043 6.6123ZM 1.28418 6.6123L 3.49609 6.6123L 3.49609 3.12598L 3.38867 3.32129L 1.28418 6.6123Z"/>
<path id="path20_fill" d="M 1.00586 5.43555L 1.36719 1.89062L 5.00977 1.89062L 5.00977 2.72559L 2.13379 2.72559L 1.91895 4.66406C 2.26725 4.45898 2.66276 4.35645 3.10547 4.35645C 3.75326 4.35645 4.26758 4.57129 4.64844 5.00098C 5.0293 5.42741 5.21973 6.00521 5.21973 6.73438C 5.21973 7.4668 5.02116 8.0446 4.62402 8.46777C 4.23014 8.8877 3.67839 9.09766 2.96875 9.09766C 2.34049 9.09766 1.8278 8.9235 1.43066 8.5752C 1.03353 8.22689 0.807292 7.74512 0.751953 7.12988L 1.60645 7.12988C 1.66178 7.53678 1.80664 7.8444 2.04102 8.05273C 2.27539 8.25781 2.58464 8.36035 2.96875 8.36035C 3.38867 8.36035 3.71745 8.21712 3.95508 7.93066C 4.19596 7.64421 4.31641 7.2487 4.31641 6.74414C 4.31641 6.26888 4.1862 5.88802 3.92578 5.60156C 3.66862 5.31185 3.3252 5.16699 2.89551 5.16699C 2.50163 5.16699 2.19238 5.25326 1.96777 5.42578L 1.72852 5.62109L 1.00586 5.43555Z"/>
<path id="path21_fill" d="M 4.13574 1.88574L 4.13574 2.65234L 3.96973 2.65234C 3.2666 2.66536 2.70671 2.8737 2.29004 3.27734C 1.87337 3.68099 1.63249 4.24902 1.56738 4.98145C 1.94173 4.55176 2.4528 4.33691 3.10059 4.33691C 3.71908 4.33691 4.21224 4.55501 4.58008 4.99121C 4.95117 5.42741 5.13672 5.99056 5.13672 6.68066C 5.13672 7.41309 4.93652 7.99902 4.53613 8.43848C 4.139 8.87793 3.60514 9.09766 2.93457 9.09766C 2.25423 9.09766 1.70247 8.83724 1.2793 8.31641C 0.85612 7.79232 0.644531 7.11849 0.644531 6.29492L 0.644531 5.94824C 0.644531 4.63965 0.922852 3.6403 1.47949 2.9502C 2.03939 2.25684 2.87109 1.90202 3.97461 1.88574L 4.13574 1.88574ZM 2.94922 5.08887C 2.63997 5.08887 2.35514 5.18164 2.09473 5.36719C 1.83431 5.55273 1.65365 5.78548 1.55273 6.06543L 1.55273 6.39746C 1.55273 6.9834 1.68457 7.4554 1.94824 7.81348C 2.21191 8.17155 2.54069 8.35059 2.93457 8.35059C 3.34147 8.35059 3.66048 8.20085 3.8916 7.90137C 4.12598 7.60189 4.24316 7.20964 4.24316 6.72461C 4.24316 6.23633 4.12435 5.84245 3.88672 5.54297C 3.65234 5.24023 3.33984 5.08887 2.94922 5.08887Z"/>
<path id="path22_stroke" d="M 0 0L 243.655 0L 243.655 -1L 0 -1L 0 0Z"/>
<path id="path23_fill" d="M 3.52051 10.2041L 4.8877 5.60352L 7.00684 5.60352L 4.0332 14.1484L 3.86914 14.5381C 3.42708 15.5042 2.69792 15.9873 1.68164 15.9873C 1.39453 15.9873 1.10286 15.944 0.806641 15.8574L 0.806641 14.3604L 1.10742 14.3672C 1.48112 14.3672 1.75911 14.3102 1.94141 14.1963C 2.12826 14.0824 2.27409 13.8932 2.37891 13.6289L 2.61133 13.0205L 0.0205078 5.60352L 2.14648 5.60352L 3.52051 10.2041ZM 17.5547 7.90039L 11.4434 7.90039L 11.4434 6.28711L 17.5547 6.28711L 17.5547 7.90039ZM 17.5547 10.8604L 11.4434 10.8604L 11.4434 9.24707L 17.5547 9.24707L 17.5547 10.8604ZM 28.0479 2.94434L 28.0479 4.57129L 27.8564 4.57129C 26.9632 4.58496 26.2432 4.81738 25.6963 5.26855C 25.154 5.71973 24.8281 6.34635 24.7188 7.14844C 25.2474 6.61068 25.915 6.3418 26.7217 6.3418C 27.5876 6.3418 28.2757 6.65169 28.7861 7.27148C 29.2965 7.89128 29.5518 8.70703 29.5518 9.71875C 29.5518 10.3659 29.4105 10.9515 29.1279 11.4756C 28.8499 11.9997 28.4535 12.4076 27.9385 12.6992C 27.4281 12.9909 26.8493 13.1367 26.2021 13.1367C 25.154 13.1367 24.3063 12.7721 23.6592 12.043C 23.0166 11.3138 22.6953 10.3408 22.6953 9.12402L 22.6953 8.41309C 22.6953 7.33301 22.8981 6.38053 23.3037 5.55566C 23.7139 4.72624 24.2995 4.08594 25.0605 3.63477C 25.8262 3.17904 26.7126 2.94889 27.7197 2.94434L 28.0479 2.94434ZM 26.1201 7.92773C 25.8011 7.92773 25.5117 8.01204 25.252 8.18066C 24.9922 8.34473 24.8008 8.56348 24.6777 8.83691L 24.6777 9.43848C 24.6777 10.0993 24.8076 10.6165 25.0674 10.9902C 25.3271 11.3594 25.6917 11.5439 26.1611 11.5439C 26.585 11.5439 26.9268 11.3776 27.1865 11.0449C 27.4508 10.7077 27.583 10.2725 27.583 9.73926C 27.583 9.19694 27.4508 8.75944 27.1865 8.42676C 26.9222 8.09408 26.5667 7.92773 26.1201 7.92773ZM 37.4268 8.88477C 37.4268 10.2611 37.1419 11.3138 36.5723 12.043C 36.0026 12.7721 35.1686 13.1367 34.0703 13.1367C 32.9857 13.1367 32.1562 12.779 31.582 12.0635C 31.0078 11.348 30.7139 10.3226 30.7002 8.9873L 30.7002 7.15527C 30.7002 5.7653 30.9873 4.71029 31.5615 3.99023C 32.1403 3.27018 32.972 2.91016 34.0566 2.91016C 35.1413 2.91016 35.9707 3.2679 36.5449 3.9834C 37.1191 4.69434 37.4131 5.71745 37.4268 7.05273L 37.4268 8.88477ZM 35.4512 6.875C 35.4512 6.05013 35.3372 5.45085 35.1094 5.07715C 34.8861 4.69889 34.5352 4.50977 34.0566 4.50977C 33.5918 4.50977 33.2477 4.68978 33.0244 5.0498C 32.8057 5.40527 32.6895 5.96354 32.6758 6.72461L 32.6758 9.14453C 32.6758 9.95573 32.7852 10.5596 33.0039 10.9561C 33.2272 11.348 33.5827 11.5439 34.0703 11.5439C 34.5534 11.5439 34.902 11.3548 35.1162 10.9766C 35.3304 10.5983 35.4421 10.0195 35.4512 9.24023L 35.4512 6.875ZM 41.665 7.81152L 42.9092 5.60352L 45.0215 5.60352L 42.916 9.22656L 45.1104 13L 42.9912 13L 41.6719 10.6758L 40.3594 13L 38.2334 13L 40.4277 9.22656L 38.3291 5.60352L 40.4482 5.60352L 41.665 7.81152Z"/>
<path id="path24_fill" d="M 2.41211 7.67676L 3.64258 3.7168L 4.60938 3.7168L 2.48535 9.81543C 2.15658 10.6943 1.63411 11.1338 0.917969 11.1338L 0.74707 11.1191L 0.410156 11.0557L 0.410156 10.3232L 0.654297 10.3428C 0.960286 10.3428 1.19792 10.2809 1.36719 10.1572C 1.53971 10.0335 1.68132 9.80729 1.79199 9.47852L 1.99219 8.94141L 0.107422 3.7168L 1.09375 3.7168L 2.41211 7.67676Z"/>
<path id="path25_stroke" d="M 0 0L 6.80604 0L 6.80604 -1L 0 -1L 0 0Z"/>
<path id="path26_stroke" d="M 0 0L 7.14274 0L 7.14274 -1L 0 -1L 0 0Z"/>
<path id="path27_stroke" d="M 0 0L 229.421 0L 229.421 -1L 0 -1L 0 0Z"/>
<path id="path28_fill" d="M 3.52051 10.2041L 4.8877 5.60352L 7.00684 5.60352L 4.0332 14.1484L 3.86914 14.5381C 3.42708 15.5042 2.69792 15.9873 1.68164 15.9873C 1.39453 15.9873 1.10286 15.944 0.806641 15.8574L 0.806641 14.3604L 1.10742 14.3672C 1.48112 14.3672 1.75911 14.3102 1.94141 14.1963C 2.12826 14.0824 2.27409 13.8932 2.37891 13.6289L 2.61133 13.0205L 0.0205078 5.60352L 2.14648 5.60352L 3.52051 10.2041ZM 17.5547 7.90039L 11.4434 7.90039L 11.4434 6.28711L 17.5547 6.28711L 17.5547 7.90039ZM 17.5547 10.8604L 11.4434 10.8604L 11.4434 9.24707L 17.5547 9.24707L 17.5547 10.8604ZM 24.6982 7.14844L 25.751 7.14844C 26.2523 7.14844 26.6237 7.02311 26.8652 6.77246C 27.1068 6.52181 27.2275 6.18913 27.2275 5.77441C 27.2275 5.37337 27.1068 5.0612 26.8652 4.83789C 26.6283 4.61458 26.3001 4.50293 25.8809 4.50293C 25.5026 4.50293 25.1859 4.60775 24.9307 4.81738C 24.6755 5.02246 24.5479 5.29134 24.5479 5.62402L 22.5723 5.62402C 22.5723 5.10449 22.7113 4.63965 22.9893 4.22949C 23.2718 3.81478 23.6637 3.49121 24.165 3.25879C 24.6709 3.02637 25.2269 2.91016 25.833 2.91016C 26.8857 2.91016 27.7106 3.16309 28.3076 3.66895C 28.9046 4.17025 29.2031 4.86296 29.2031 5.74707C 29.2031 6.2028 29.0641 6.62207 28.7861 7.00488C 28.5081 7.3877 28.1436 7.68164 27.6924 7.88672C 28.2529 8.08724 28.6699 8.38802 28.9434 8.78906C 29.2214 9.1901 29.3604 9.66406 29.3604 10.2109C 29.3604 11.0951 29.0368 11.8037 28.3896 12.3369C 27.7471 12.8701 26.8949 13.1367 25.833 13.1367C 24.8395 13.1367 24.026 12.8747 23.3926 12.3506C 22.7637 11.8265 22.4492 11.1338 22.4492 10.2725L 24.4248 10.2725C 24.4248 10.6462 24.5638 10.9515 24.8418 11.1885C 25.1243 11.4255 25.4707 11.5439 25.8809 11.5439C 26.3503 11.5439 26.7171 11.4209 26.9814 11.1748C 27.2503 10.9242 27.3848 10.5938 27.3848 10.1836C 27.3848 9.1901 26.8379 8.69336 25.7441 8.69336L 24.6982 8.69336L 24.6982 7.14844ZM 31.0215 8.10547L 31.5957 3.04688L 37.1738 3.04688L 37.1738 4.69434L 33.2158 4.69434L 32.9697 6.83398C 33.4391 6.58333 33.9382 6.45801 34.4668 6.45801C 35.4147 6.45801 36.1576 6.75195 36.6953 7.33984C 37.2331 7.92773 37.502 8.75033 37.502 9.80762C 37.502 10.4502 37.3652 11.0267 37.0918 11.5371C 36.8229 12.043 36.4355 12.4372 35.9297 12.7197C 35.4238 12.9977 34.8268 13.1367 34.1387 13.1367C 33.5371 13.1367 32.9788 13.016 32.4639 12.7744C 31.9489 12.5283 31.541 12.1842 31.2402 11.7422C 30.944 11.3001 30.7868 10.7965 30.7686 10.2314L 32.7236 10.2314C 32.7646 10.6462 32.9082 10.9697 33.1543 11.2021C 33.4049 11.43 33.7308 11.5439 34.1318 11.5439C 34.5785 11.5439 34.9225 11.3844 35.1641 11.0654C 35.4056 10.7419 35.5264 10.2861 35.5264 9.69824C 35.5264 9.13314 35.3874 8.7002 35.1094 8.39941C 34.8314 8.09863 34.4372 7.94824 33.9268 7.94824C 33.4574 7.94824 33.0768 8.07129 32.7852 8.31738L 32.5938 8.49512L 31.0215 8.10547ZM 41.665 7.81152L 42.9092 5.60352L 45.0215 5.60352L 42.916 9.22656L 45.1104 13L 42.9912 13L 41.6719 10.6758L 40.3594 13L 38.2334 13L 40.4277 9.22656L 38.3291 5.60352L 40.4482 5.60352L 41.665 7.81152ZM 53.4434 7.42871L 55.9111 7.42871L 55.9111 9.21289L 53.4434 9.21289L 53.4434 12.002L 51.5635 12.002L 51.5635 9.21289L 49.0889 9.21289L 49.0889 7.42871L 51.5635 7.42871L 51.5635 4.75586L 53.4434 4.75586L 53.4434 7.42871ZM 67.2725 4.1543L 63.4238 13L 61.3389 13L 65.1943 4.64648L 60.2451 4.64648L 60.2451 3.04688L 67.2725 3.04688L 67.2725 4.1543ZM 75.2432 8.88477C 75.2432 10.2611 74.9583 11.3138 74.3887 12.043C 73.819 12.7721 72.985 13.1367 71.8867 13.1367C 70.8021 13.1367 69.9727 12.779 69.3984 12.0635C 68.8242 11.348 68.5303 10.3226 68.5166 8.9873L 68.5166 7.15527C 68.5166 5.7653 68.8037 4.71029 69.3779 3.99023C 69.9567 3.27018 70.7884 2.91016 71.873 2.91016C 72.9577 2.91016 73.7871 3.2679 74.3613 3.9834C 74.9355 4.69434 75.2295 5.71745 75.2432 7.05273L 75.2432 8.88477ZM 73.2676 6.875C 73.2676 6.05013 73.1536 5.45085 72.9258 5.07715C 72.7025 4.69889 72.3516 4.50977 71.873 4.50977C 71.4082 4.50977 71.0641 4.68978 70.8408 5.0498C 70.6221 5.40527 70.5059 5.96354 70.4922 6.72461L 70.4922 9.14453C 70.4922 9.95573 70.6016 10.5596 70.8203 10.9561C 71.0436 11.348 71.3991 11.5439 71.8867 11.5439C 72.3698 11.5439 72.7184 11.3548 72.9326 10.9766C 73.1468 10.5983 73.2585 10.0195 73.2676 9.24023L 73.2676 6.875Z"/>
<path id="path29_stroke" d="M 0 0L 8.85703 0L 8.85703 -1L 0 -1L 0 0Z"/>
</defs>
</svg>

